<svg xmlns="http://www.w3.org/2000/svg" id="icon" viewBox="0 0 32 32" xmlns:xlink="http://www.w3.org/1999/xlink" xml:space="preserve" width="100%" height="100%"><defs xmlns="http://www.w3.org/2000/svg" style="fill: rgb(229, 212, 179);"><style>.cls-1{fill:none;}</style></defs><path xmlns="http://www.w3.org/2000/svg" d="M28 26h-3v-2h3V8h-3V6h3a2.002 2.002 0 0 1 2 2v16a2.003 2.003 0 0 1-2 2z" style="fill: rgb(229, 212, 179);"></path><circle xmlns="http://www.w3.org/2000/svg" cx="23" cy="16" r="2" style="fill: rgb(229, 212, 179);"></circle><circle xmlns="http://www.w3.org/2000/svg" cx="16" cy="16" r="2" style="fill: rgb(229, 212, 179);"></circle><circle xmlns="http://www.w3.org/2000/svg" cx="9" cy="16" r="2" style="fill: rgb(229, 212, 179);"></circle><path xmlns="http://www.w3.org/2000/svg" d="M7 26H4a2.002 2.002 0 0 1-2-2V8a2.002 2.002 0 0 1 2-2h3v2H4v16h3z" style="fill: rgb(229, 212, 179);"></path><path xmlns="http://www.w3.org/2000/svg" id="_Transparent_Rectangle_" d="M0 0h32v32H0z" class="cls-1" data-name="<Transparent Rectangle>"></path></svg>